<svg
  width="55"
  height="55"
  viewBox="0 0 74 74"
  fill="none"
  xmlns="http://www.w3.org/2000/svg"
>
  <rect width="74" height="74" fill="#E5D7FF" />
  <path
    d="M18.0687 15.0788C18.0321 14.8263 18 14.482 18 14.3076V14L30.7748 14.0138C42.6607 14.0275 43.5817 14.0321 44.072 14.1056C44.3606 14.1515 44.8555 14.2387 45.1717 14.303C45.4878 14.3627 46.0423 14.5004 46.4088 14.6014C46.7754 14.707 47.3207 14.8814 47.6231 14.9962C47.9255 15.111 48.4112 15.3084 48.6999 15.4415C48.9885 15.5701 49.4421 15.7996 49.7079 15.9511C49.9737 16.098 50.3861 16.3551 50.6243 16.5158C50.8626 16.681 51.2154 16.9381 51.4033 17.0896C51.5911 17.2457 51.944 17.5671 52.1822 17.8104C52.4205 18.0537 52.7779 18.4485 52.9703 18.6872C53.1628 18.9259 53.4973 19.3896 53.7172 19.7156C53.9372 20.0415 54.2716 20.6337 54.4687 21.0239C54.6611 21.4142 54.9223 22.0064 55.0414 22.3323C55.1606 22.6583 55.3301 23.2 55.4126 23.5259C55.4951 23.8519 55.6096 24.3798 55.66 24.6966C55.7104 25.0134 55.7791 25.5688 55.8066 25.9361C55.8387 26.3126 55.8479 26.9094 55.8295 27.3134C55.8158 27.7036 55.77 28.282 55.7333 28.5988C55.6921 28.9155 55.6096 29.4205 55.5455 29.7235C55.4813 30.0265 55.3576 30.5223 55.2705 30.8253C55.1835 31.1283 54.9956 31.6654 54.8582 32.0189C54.7161 32.3724 54.4641 32.9325 54.2946 33.2585C54.125 33.5844 53.8547 34.071 53.6897 34.3281C53.5294 34.5898 53.2224 35.0351 53.0116 35.3151C52.8008 35.5998 52.4526 36.0359 52.2326 36.2838C52.0173 36.5363 51.6324 36.9357 51.3804 37.1744C51.1283 37.4131 50.6839 37.785 50.3952 38.0054C50.1065 38.2257 49.6713 38.5241 49.433 38.6756C49.1947 38.8271 48.6678 39.1163 48.2646 39.3229C47.8613 39.5249 47.2107 39.8187 46.8212 39.9702C46.4317 40.1263 45.8636 40.3237 45.5611 40.4155C45.2587 40.5028 44.7547 40.6405 44.4385 40.7139C44.1224 40.7874 43.6092 40.893 43.293 40.9435C42.9769 40.994 42.5049 41.0582 42.2391 41.0904C41.9734 41.1179 41.1349 41.1546 38.9813 41.2006L38.7888 41.6596C38.6789 41.9121 38.491 42.3024 38.3673 42.5319C38.2436 42.7614 38.0191 43.1287 37.8633 43.3582C37.7075 43.5878 34.8024 47.3982 31.4071 51.8283C28.0118 56.2584 25.1984 59.9219 25.1572 59.9678C25.0839 60.0458 25.0701 60.0137 24.9327 59.5087C24.8548 59.2103 23.723 54.7343 22.4171 49.5558C21.1158 44.382 20.0207 40.0115 19.984 39.8463C19.9474 39.681 19.8878 39.3321 19.8557 39.0658C19.8191 38.7996 19.787 38.2395 19.787 37.8171C19.787 37.3718 19.8191 36.8071 19.8603 36.4858C19.9016 36.1736 20.0024 35.6503 20.0848 35.3243C20.1673 34.9984 20.3139 34.5301 20.4056 34.2914C20.5018 34.0527 20.6988 33.6165 20.8409 33.3273C20.9875 33.0381 21.2304 32.6157 21.377 32.3862C21.5282 32.1567 23.6039 29.4205 25.9911 26.3034C28.383 23.1862 30.3441 20.6062 30.3533 20.5786C30.367 20.5327 29.7897 20.519 27.5444 20.5281C25.4596 20.5373 24.5844 20.5235 24.2316 20.4822C23.9659 20.4501 23.5122 20.372 23.2236 20.317C22.9349 20.2573 22.4996 20.1425 22.2613 20.0599C22.0231 19.9818 21.6611 19.8395 21.4595 19.7431C21.2578 19.6513 20.9188 19.4585 20.7034 19.3162C20.4881 19.1784 20.1902 18.9535 20.039 18.8204C19.8878 18.6872 19.6358 18.4301 19.48 18.2511C19.3242 18.072 19.0951 17.7599 18.9668 17.5579C18.8385 17.3559 18.6552 17.0024 18.5544 16.7774C18.4582 16.5525 18.3207 16.176 18.2566 15.9511C18.1924 15.7261 18.1054 15.3313 18.0687 15.0788Z"
    fill="#6744C9"
  />
  <path
    d="M36.6714 25.0409C35.3976 19.968 34.3346 15.7445 34.3163 15.6619L34.2796 15.515L35.9337 15.5379L37.2671 20.5098L40.0393 20.5327C42.4082 20.5465 42.8756 20.5603 43.2467 20.6291C43.485 20.675 43.9203 20.7898 44.2089 20.8862C44.4976 20.978 44.8688 21.1249 45.0337 21.2076C45.1987 21.2902 45.4736 21.4509 45.6523 21.5657C45.8264 21.6758 46.1334 21.9054 46.3304 22.0752C46.5275 22.2405 46.8207 22.5343 46.9765 22.7225C47.1369 22.9108 47.3614 23.2092 47.4714 23.3882C47.5859 23.5672 47.7463 23.8427 47.8288 24.008C47.9112 24.1732 48.0579 24.5451 48.1541 24.8343C48.2457 25.1235 48.3603 25.5918 48.4061 25.8672C48.4657 26.2575 48.4748 26.5421 48.4565 27.1297C48.4382 27.6347 48.3969 28.0341 48.3374 28.3233C48.287 28.562 48.177 28.9569 48.0991 29.1956C48.0212 29.4343 47.8563 29.8383 47.7371 30.0908C47.618 30.3433 47.3751 30.7656 47.1964 31.0319C47.0223 31.2982 46.7245 31.6884 46.5412 31.9042C46.3533 32.1153 46.0189 32.4505 45.7897 32.6525C45.5606 32.8499 45.1803 33.1391 44.9421 33.2998C44.7038 33.4604 44.3097 33.69 44.0715 33.8093C43.8332 33.9287 43.3979 34.1077 43.1092 34.2042C42.8206 34.3006 42.3761 34.4245 42.1241 34.475C41.7346 34.5622 41.478 34.5806 39.077 34.6127L39.0358 34.4429C39.0129 34.3465 37.9498 30.1137 36.6714 25.0409Z"
    fill="#E5D7FF"
  />
  <path
    d="M28.1121 31.6195C28.3962 31.5461 28.8315 31.468 29.0744 31.4451C29.3218 31.4221 29.7067 31.4175 29.9358 31.4267C30.1603 31.4359 30.5727 31.491 30.8522 31.5415C31.1271 31.592 31.5304 31.6976 31.7457 31.771C31.9611 31.8491 32.3505 32.0235 32.6163 32.1567C32.8821 32.2944 33.2715 32.5377 33.4869 32.6984C33.7023 32.859 34.0505 33.1758 34.2658 33.4008C34.4812 33.6257 34.7607 33.9654 34.889 34.1537C35.0219 34.3419 35.2189 34.6816 35.3335 34.9065C35.448 35.1361 35.6038 35.5079 35.6817 35.7329C35.755 35.9624 35.8512 36.293 35.8879 36.4674C35.9246 36.6465 35.975 37.0091 36.0025 37.2708C36.0345 37.6014 36.0345 37.9273 36.0025 38.3037C35.975 38.6067 35.8971 39.0842 35.8238 39.3596C35.7504 39.6397 35.6221 40.0299 35.5397 40.2319C35.4526 40.4339 35.3106 40.7369 35.2189 40.8976C35.1273 41.0628 34.9257 41.375 34.7653 41.5862C34.6095 41.8019 32.8088 44.157 30.7697 46.8197C28.7261 49.487 26.9849 51.7548 26.8933 51.865C26.7467 52.044 26.7238 52.0578 26.6963 51.9798C26.6779 51.9339 25.9311 48.982 25.0376 45.4195C24.1441 41.8616 23.388 38.7628 23.3559 38.5333C23.3239 38.2946 23.3147 37.8814 23.3285 37.5463C23.3422 37.2341 23.388 36.798 23.4293 36.5822C23.4705 36.371 23.5667 36.0083 23.6446 35.7788C23.7225 35.5539 23.8737 35.182 23.9883 34.9525C24.1028 34.7275 24.2953 34.397 24.4144 34.2179C24.5335 34.0435 24.7535 33.7543 24.9001 33.5798C25.0467 33.4054 25.3583 33.1069 25.5874 32.9141C25.8211 32.7213 26.1693 32.4688 26.3664 32.3495C26.568 32.2301 26.9254 32.0465 27.1636 31.9409C27.4019 31.8399 27.8326 31.693 28.1121 31.6195Z"
    fill="#E5D7FF"
  />
  <path
    d="M28.6527 34.5898C28.8039 34.5439 29.0284 34.4934 29.1567 34.4704C29.285 34.4521 29.5691 34.4429 29.7982 34.4567C30.0273 34.4658 30.3435 34.5072 30.5084 34.5439C30.6734 34.5852 30.9712 34.6954 31.1728 34.7964C31.3744 34.8974 31.6768 35.0902 31.851 35.2325C32.0205 35.3702 32.2542 35.6135 32.3687 35.7742C32.4879 35.9303 32.662 36.2241 32.7582 36.4261C32.859 36.6281 32.969 36.9357 33.0056 37.1147C33.0423 37.2938 33.0744 37.6381 33.0744 37.886C33.0744 38.1293 33.0423 38.4828 33.0011 38.6664C32.9644 38.8455 32.8407 39.1806 32.7261 39.4101C32.6162 39.6397 32.4283 39.9381 32.3092 40.0758C32.19 40.2135 31.9793 40.4247 31.8372 40.5487C31.6998 40.668 31.4019 40.8562 31.1728 40.9664C30.9437 41.0812 30.6092 41.2052 30.4259 41.2419C30.2472 41.2832 29.8944 41.3153 29.6516 41.3153C29.4041 41.3153 29.0605 41.2832 28.8818 41.2465C28.7031 41.2097 28.3778 41.0858 28.1487 40.9756C27.9196 40.8608 27.6034 40.6588 27.4384 40.5211C27.2735 40.388 27.0581 40.163 26.9527 40.0253C26.8519 39.8876 26.7145 39.6856 26.6503 39.5708C26.5862 39.4561 26.4808 39.2219 26.4166 39.0429C26.3525 38.8684 26.2792 38.5471 26.2471 38.3313C26.215 38.1109 26.2059 37.7988 26.2242 37.6197C26.2379 37.4453 26.2838 37.1744 26.325 37.0229C26.3616 36.8714 26.4487 36.6235 26.5174 36.472C26.5862 36.3205 26.7099 36.0956 26.7969 35.967C26.884 35.8431 27.0581 35.6273 27.1864 35.4896C27.3101 35.3565 27.5301 35.1682 27.6675 35.0718C27.805 34.98 28.0204 34.8469 28.1487 34.7826C28.2724 34.7183 28.5015 34.6311 28.6527 34.5898Z"
    fill="#6744C9"
  />
</svg>
