<?xml version="1.0" encoding="utf-8"?>
<!-- Generator: Adobe Illustrator 24.0.1, SVG Export Plug-In . SVG Version: 6.00 Build 0)  -->
<svg version="1.1" id="Layer_1" xmlns="http://www.w3.org/2000/svg" xmlns:xlink="http://www.w3.org/1999/xlink" x="0px" y="0px"
	 viewBox="0 0 922.5 922.5" style="enable-background:new 0 0 922.5 922.5;" xml:space="preserve">
<style type="text/css">
	.st0{fill:#ECE6FF;}
	.st1{fill:#FFFFFF;}
	.st2{fill:#6744C9;}
	.st3{fill:#B594FF;}
	.st4{fill:#DB9900;}
</style>
<path class="st0" d="M116.5,507.9c122.6-5.9,108.3-77.4,107.2-133.6c-1.3-69.9,91.9-89.9,136.7-8.2c52.3,95.5,55.3,5.6,157.4,89.9
	c58.7,48.4,240.6-143.2,326.6-94.2c49,27.9-11.2,109.5-48,132.5c-29.3,18.4-38.3,73.4,23.5,113.4c67.6,43.7-48.1,94.9-61.5,110.5
	H148.9C47.8,609.2,55.5,510.8,116.5,507.9z"/>
<g>
	<g>
		<path class="st1" d="M730.8,436.5l-4-4.5c-14.3-15.8-38.2-18.3-55.3-5.6l-16.2,12c-11,8.1-25.6,9.6-38.1,3.9l-4.6-2.1
			c-10.8-5-23.3-4.8-33.9,0.5c-13.2,6.6-20.9,20.7-19.3,35.4l4,36.6l-63.1-20.1c-10.4-3.3-21.1,4.5-21.1,15.4v0
			c0,6.4,3.8,12.2,9.6,14.8l74.7,33.4v1.7l-47.7,5.2c-8,0.9-13.8,7.9-13.3,15.9v0c0.5,7.3,6.2,13.2,13.5,13.9l42.8,4.1l-15.1,122.5
			h191.3l-3.9-200.2l9.2-18.9C750.1,479.1,746.5,453.9,730.8,436.5z"/>
		<path class="st2" d="M665.4,601c-6.6,0-13.2-1.4-19.6-4.2l-158.5-70.9c-7.1-3.2-11.7-10.2-11.7-18c0-6.4,2.9-12.1,8.1-15.9
			c5.1-3.7,11.5-4.8,17.6-2.9l58,18.5l-3.4-31.3c-1.7-16.1,6.8-31.7,21.2-38.9c11.7-5.8,25.1-6,36.9-0.5l4.6,2.1
			c11.3,5.2,24.5,3.9,34.5-3.5l16.2-12c18.7-13.8,44.5-11.2,60,6.1l4,4.5c16.7,18.6,20.5,45.2,9.6,67.7L708.2,574
			C699.9,591.1,683.1,601,665.4,601z M495.2,495.2c-2.6,0-5.2,0.8-7.5,2.5c-3.3,2.4-5.2,6.2-5.2,10.3c0,5,2.9,9.6,7.5,11.6
			l158.5,70.9c20.2,9,43.6,0.5,53.3-19.5l34.9-72.2c9.6-20,6.3-43.5-8.5-60l-4-4.5c-13.1-14.6-34.9-16.8-50.7-5.1l-16.2,12
			c-12.1,8.9-28,10.5-41.6,4.2l-4.6-2.1c-9.9-4.6-21.1-4.4-30.9,0.5c-11.8,5.9-18.8,18.7-17.4,31.9l3.7,34.3l90.4,28.8l31.4-63.7
			c0.9-1.7,3-2.5,4.7-1.6c1.7,0.9,2.4,3,1.6,4.7l-32.7,66.4c-0.8,1.6-2.6,2.3-4.2,1.8l-95.4-30.4c0,0-0.1,0-0.1,0l-63.1-20.1
			C497.8,495.4,496.5,495.2,495.2,495.2z"/>
		<path class="st2" d="M543.4,723c-0.1,0-0.3,0-0.4,0c-1.9-0.2-3.3-2-3.1-3.9l19.9-163.4c0.2-1.9,2-3.3,3.9-3.1
			c1.9,0.2,3.3,2,3.1,3.9l-19.9,163.4C546.6,721.7,545.1,723,543.4,723z"/>
		<path class="st2" d="M734.7,723c-1.9,0-3.5-1.5-3.5-3.4l-3.9-200.2c0-1.9,1.5-3.5,3.4-3.6c2-0.1,3.5,1.5,3.6,3.4l3.9,200.2
			C738.2,721.3,736.7,722.9,734.7,723C734.7,723,734.7,723,734.7,723z"/>
		<path class="st2" d="M558.5,600.4c-0.1,0-0.2,0-0.3,0l-42.8-4.1c-9-0.9-16-8.1-16.6-17.2c-0.7-9.9,6.6-18.5,16.4-19.6l47.7-5.2
			c1.9-0.2,3.6,1.2,3.9,3.1c0.2,1.9-1.2,3.6-3.1,3.9l-47.7,5.2c-6.1,0.7-10.6,6-10.2,12.2c0.4,5.6,4.7,10.1,10.3,10.7l42.8,4.1
			c1.9,0.2,3.3,1.9,3.1,3.8C561.8,599.1,560.3,600.4,558.5,600.4z"/>
	</g>
	<g>
		<circle class="st3" cx="645" cy="326.4" r="68.2"/>
		<path class="st2" d="M645,398c-39.5,0-71.7-32.2-71.7-71.7s32.2-71.7,71.7-71.7c39.5,0,71.7,32.2,71.7,71.7S684.5,398,645,398z
			 M645,261.7c-35.7,0-64.7,29-64.7,64.7s29,64.7,64.7,64.7s64.7-29,64.7-64.7S680.6,261.7,645,261.7z"/>
	</g>
</g>
<g>
	<g>
		<path class="st1" d="M353.8,574.3c9,2.6,18.6-0.7,24.3-8.1l67-88.3c4.3-5.7,4.7-13.5,1.1-19.6c-5.7-9.5-18.6-11.4-26.8-4
			l-70.9,64.1l-25.8-55.8c-9.3-20.2-33.3-29-53.5-19.6l-13.2,6.1c-14.4,6.7-31.2,5.8-44.9-2.3c-15.3-9.1-34.9-6.5-47.3,6.3
			l-9.9,10.3c-20.9,21.6-27,53.5-15.7,81.3l34,83.7c1.9,4.6,4.3,8.8,7.1,12.7v0l-4.9,78.5h199.8l-13.7-79.1l-0.3-2.2l52.4-10.6
			c10.2-2.1,17-11.7,15.5-21.9c-1.4-10.4-10.8-17.8-21.2-16.8l-53.2,4.8l-2.9-20.1L353.8,574.3z"/>
		<path class="st2" d="M225.3,667.7c-24.4,0-47-14.7-56.5-38.1l-34-83.7c-11.8-29.1-5.4-62.5,16.4-85.1l9.9-10.3
			c13.6-14.1,34.8-16.9,51.6-6.9c12.7,7.6,28.2,8.4,41.6,2.1l13.2-6.1c10.6-4.9,22.5-5.4,33.5-1.4c11,4,19.7,12.1,24.7,22.7
			l23.8,51.5l67.3-60.9c4.7-4.2,10.9-6.1,17.2-5.2c6.2,0.9,11.7,4.6,14.9,10c4.5,7.4,4,16.7-1.3,23.6l-67,88.3
			c-6.6,8.7-17.6,12.3-28,9.4l-14.2-4c-1.9-0.5-2.9-2.5-2.4-4.3c0.5-1.9,2.5-2.9,4.3-2.4l14.2,4c7.7,2.2,15.7-0.5,20.5-6.9l67-88.3
			c3.5-4.6,3.8-10.8,0.8-15.7c-2.2-3.6-5.8-6-10-6.7c-4.2-0.6-8.3,0.6-11.5,3.5l-70.9,64.1c-0.8,0.7-2,1.1-3,0.8c-1.1-0.2-2-1-2.5-2
			L319.5,464c-4.1-8.9-11.5-15.7-20.7-19.1c-9.2-3.4-19.2-3-28.1,1.2l-13.2,6.1c-15.5,7.2-33.5,6.3-48.1-2.5c-14-8.4-31.7-6-43,5.7
			l-9.9,10.3c-19.9,20.6-25.8,51.1-15,77.6l34,83.7c9.8,24,35.3,37.8,60.7,32.6l175.7-35.5c8.3-1.7,13.9-9.6,12.8-18
			c-1.2-8.5-8.8-14.6-17.4-13.8l-166.8,14.9c-1.4,0.1-2.7-0.6-3.4-1.8L196.2,534c-1-1.7-0.4-3.8,1.3-4.8c1.7-1,3.8-0.4,4.8,1.3
			L242,600l164.5-14.7c12.3-1.1,23.3,7.6,25,19.8c1.7,12.1-6.4,23.4-18.3,25.8l-175.7,35.5C233.4,667.3,229.3,667.7,225.3,667.7z"/>
		<path class="st2" d="M174.3,723c-0.1,0-0.1,0-0.2,0c-1.9-0.1-3.4-1.8-3.3-3.7l4.9-78.5c0.1-1.9,1.8-3.4,3.7-3.3
			c1.9,0.1,3.4,1.8,3.3,3.7l-4.9,78.5C177.6,721.5,176.1,723,174.3,723z"/>
		<path class="st2" d="M374.1,723c-1.7,0-3.2-1.2-3.4-2.9l-13.7-79.1c-0.3-1.9,0.9-3.7,2.9-4c1.9-0.3,3.7,0.9,4,2.9l13.7,79.1
			c0.3,1.9-0.9,3.7-2.9,4C374.5,722.9,374.3,723,374.1,723z"/>
	</g>
	<g>
		<circle class="st3" cx="231.1" cy="343.7" r="68.2"/>
		<path class="st2" d="M231.1,415.4c-39.5,0-71.7-32.2-71.7-71.7s32.2-71.7,71.7-71.7s71.7,32.2,71.7,71.7S270.7,415.4,231.1,415.4z
			 M231.1,279c-35.7,0-64.7,29-64.7,64.7s29,64.7,64.7,64.7s64.7-29,64.7-64.7S266.8,279,231.1,279z"/>
	</g>
</g>
<g>
	<path class="st2" d="M254.3,723H90c-1.9,0-3.5-1.6-3.5-3.5s1.6-3.5,3.5-3.5h164.2c1.9,0,3.5,1.6,3.5,3.5S256.2,723,254.3,723z"/>
	<path class="st2" d="M835.2,723h-38.8c-1.9,0-3.5-1.6-3.5-3.5s1.6-3.5,3.5-3.5h38.8c1.9,0,3.5,1.6,3.5,3.5S837.1,723,835.2,723z"/>
	<path class="st2" d="M762.8,723H638.3c-1.9,0-3.5-1.6-3.5-3.5s1.6-3.5,3.5-3.5h124.4c1.9,0,3.5,1.6,3.5,3.5S764.7,723,762.8,723z"
		/>
	<path class="st2" d="M593.9,723H299.3c-1.9,0-3.5-1.6-3.5-3.5s1.6-3.5,3.5-3.5h294.6c1.9,0,3.5,1.6,3.5,3.5S595.9,723,593.9,723z"
		/>
</g>
<g>
	<path class="st4" d="M436.8,287.4c-1.6,0-2.9-1-3.4-2.5l-6.2-21.1c-0.5-1.9,0.5-3.8,2.4-4.3c1.9-0.5,3.8,0.5,4.3,2.4l2.9,9.7
		l6.8-23.1c0.3-1.1,1.2-2,2.4-2.4l8.8-2.6l-8.8-2.6c-1.1-0.3-2-1.2-2.4-2.4l-6.8-23.1l-6.8,23.1c-0.3,1.1-1.2,2-2.4,2.4l-8.8,2.6
		l8.8,2.6c1.9,0.5,2.9,2.5,2.4,4.3c-0.5,1.9-2.5,2.9-4.3,2.4l-20.2-5.9c-1.5-0.4-2.5-1.8-2.5-3.4s1-2.9,2.5-3.4l18.3-5.4l9.6-32.7
		c0.4-1.5,1.8-2.5,3.4-2.5s2.9,1,3.4,2.5l9.6,32.7l18.3,5.4c1.5,0.4,2.5,1.8,2.5,3.4s-1,2.9-2.5,3.4l-18.3,5.4l-9.6,32.7
		C439.8,286.4,438.4,287.4,436.8,287.4z"/>
	<path class="st4" d="M90,410.7c-1.6,0-2.9-1-3.4-2.5l-6.2-21.1c-0.5-1.9,0.5-3.8,2.4-4.3c1.9-0.5,3.8,0.5,4.3,2.4l2.9,9.7l6.8-23.1
		c0.3-1.1,1.2-2,2.4-2.4l8.8-2.6l-8.8-2.6c-1.1-0.3-2-1.2-2.4-2.4L90,338.7l-6.8,23.1c-0.3,1.1-1.2,2-2.4,2.4l-8.8,2.6l8.8,2.6
		c1.9,0.5,2.9,2.5,2.4,4.3c-0.5,1.9-2.5,2.9-4.3,2.4l-20.2-5.9c-1.5-0.4-2.5-1.8-2.5-3.4s1-2.9,2.5-3.4l18.3-5.4l9.6-32.7
		c0.4-1.5,1.8-2.5,3.4-2.5s2.9,1,3.4,2.5L103,358l18.3,5.4c1.5,0.4,2.5,1.8,2.5,3.4s-1,2.9-2.5,3.4l-18.3,5.4l-9.6,32.7
		C93,409.7,91.6,410.7,90,410.7z"/>
	<path class="st4" d="M821,356.8L821,356.8c-1.6,0-2.9-1-3.4-2.5l-6.2-21.1c-0.5-1.9,0.5-3.8,2.4-4.3c1.9-0.5,3.8,0.5,4.3,2.4
		l2.9,9.7l6.8-23.1c0.3-1.1,1.2-2,2.4-2.4l8.8-2.6l-8.8-2.6c-1.1-0.3-2-1.2-2.4-2.4l-6.8-23.1l-6.8,23.1c-0.3,1.1-1.2,2-2.4,2.4
		l-8.8,2.6l8.8,2.6c1.9,0.5,2.9,2.5,2.4,4.3c-0.5,1.9-2.5,2.9-4.3,2.4l-20.2-5.9c-1.5-0.4-2.5-1.8-2.5-3.4c0-1.6,1-2.9,2.5-3.4
		l18.3-5.4l9.6-32.7c0.4-1.5,1.8-2.5,3.4-2.5s2.9,1,3.4,2.5l9.6,32.7l18.3,5.4c1.5,0.4,2.5,1.8,2.5,3.4c0,1.6-1,2.9-2.5,3.4
		l-18.3,5.4l-9.6,32.7C823.9,355.8,822.6,356.8,821,356.8z"/>
	<path class="st4" d="M90,663.7c-1.6,0-2.9-1-3.4-2.5l-6.2-21.1c-0.5-1.9,0.5-3.8,2.4-4.3c1.9-0.5,3.8,0.5,4.3,2.4l2.9,9.7l6.8-23.1
		c0.3-1.1,1.2-2,2.4-2.4l8.8-2.6l-8.8-2.6c-1.1-0.3-2-1.2-2.4-2.4L90,591.7l-6.8,23.1c-0.3,1.1-1.2,2-2.4,2.4l-8.8,2.6l8.8,2.6
		c1.9,0.5,2.9,2.5,2.4,4.3c-0.5,1.9-2.5,2.9-4.3,2.4l-20.2-5.9c-1.5-0.4-2.5-1.8-2.5-3.4s1-2.9,2.5-3.4l18.3-5.4l9.6-32.7
		c0.4-1.5,1.8-2.5,3.4-2.5s2.9,1,3.4,2.5L103,611l18.3,5.4c1.5,0.4,2.5,1.8,2.5,3.4s-1,2.9-2.5,3.4l-18.3,5.4l-9.6,32.7
		C93,662.7,91.6,663.7,90,663.7z"/>
	<path class="st4" d="M801.2,630.3L801.2,630.3c-1.6,0-2.9-1-3.4-2.5l-6.2-21.1c-0.5-1.9,0.5-3.8,2.4-4.3c1.8-0.5,3.8,0.5,4.3,2.4
		l2.9,9.7l6.8-23.1c0.3-1.1,1.2-2,2.4-2.4l8.8-2.6l-8.8-2.6c-1.1-0.3-2-1.2-2.4-2.4l-6.8-23.1l-6.8,23.1c-0.3,1.1-1.2,2-2.4,2.4
		l-8.8,2.6l8.8,2.6c1.9,0.5,2.9,2.5,2.4,4.3c-0.5,1.9-2.5,2.9-4.3,2.4l-20.2-5.9c-1.5-0.4-2.5-1.8-2.5-3.4s1-2.9,2.5-3.4l18.3-5.4
		l9.6-32.7c0.4-1.5,1.8-2.5,3.4-2.5s2.9,1,3.4,2.5l9.6,32.7l18.3,5.4c1.5,0.4,2.5,1.8,2.5,3.4s-1,2.9-2.5,3.4l-18.3,5.4l-9.6,32.7
		C804.1,629.3,802.7,630.3,801.2,630.3z"/>
</g>
</svg>
