<?xml version="1.0" encoding="utf-8"?>
<!-- Generator: Adobe Illustrator 24.0.1, SVG Export Plug-In . SVG Version: 6.00 Build 0)  -->
<svg version="1.1" id="Layer_1" xmlns="http://www.w3.org/2000/svg" xmlns:xlink="http://www.w3.org/1999/xlink" x="0px" y="0px"
	 viewBox="0 0 922.5 922.5" style="enable-background:new 0 0 922.5 922.5;" xml:space="preserve">
<style type="text/css">
	.st0{fill:#ECE6FF;}
	.st1{fill:#D5CAEA;}
	.st2{fill:#FFFFFF;}
	.st3{fill:#6744C9;}
	.st4{fill:#B594FF;}
	.st5{fill:#DB9900;}
</style>
<g>
	<path class="st0" d="M556.1,357.7c-36.8-4.2,81.8-197.4,5.2-202.1c-76.6-4.8-51.9,107.1-131.8,129.1
		c-27.9,7.7-79.2-75.8-132.5-59.1c-76.7,24,36.7,82.2,30,115.5s-72.2-3.8-94.4,49.8s142.2,41.3,142.2,86.9S257,534.1,248.1,575.3
		c-8.9,41.2,112.2,49.9,175.5,21.1s94.6-3.3,89,27.8c-5.7,31.1,26.5,72.2,67.6,30c41.1-42.2-12.2-126.6,21.1-173.3
		S654.3,368.8,556.1,357.7z"/>
	<ellipse class="st1" cx="492.5" cy="794.8" rx="51.4" ry="6.8"/>
	<ellipse class="st1" cx="304.6" cy="785.9" rx="65.2" ry="6.1"/>
	<g>
		<g>
			<path class="st2" d="M481.1,591.8L314.3,779.2c-5.3,5.9-13.5,8.4-21.1,6.3h0c-13.6-3.7-19.6-19.5-12.1-31.4l113.1-177.2
				c18.2-28.6,26.2-62.5,22.6-96.2l-8.2-76.7l-5.5-9.6c-9-15.7-8.3-35.2,2-50.1v0c8.8-12.8,23.3-20.4,38.7-20.4h24
				c23.8,0,47.4-5.5,68.7-16.1l17.4-8.6c4.8-2.4,9.3-5.5,13.1-9.3l92.5-90c8.3-8.1,21.8-7,28.7,2.3c5,6.8,5,16,0,22.7l-119,161.5
				L566.4,491l78.1,66.2c7,6,8.6,16.2,3.6,23.9c-5.4,8.5-16.6,11-25.2,5.7l-66.7-41.6l0,0L510.6,777c-2,10.3-11.1,17.7-21.6,17.7h0
				c-12.8,0-22.9-10.9-21.9-23.7L481.1,591.8"/>
			<path class="st3" d="M566.4,494.5C566.4,494.5,566.3,494.5,566.4,494.5c-2-0.1-3.6-1.7-3.5-3.6l2.2-77.2c0.1-1.9,1.7-3.4,3.6-3.4
				c1.9,0.1,3.5,1.7,3.4,3.6l-2.2,77.2C569.8,493,568.3,494.5,566.4,494.5z"/>
			<path class="st3" d="M632.5,593.1c-3.9,0-7.9-1.1-11.5-3.3l-135.4-84.3c-23.1-14.4-42.5-34.4-56-58l-29.6-51.4
				c-9.7-16.8-8.8-37.9,2.1-53.8c9.4-13.7,25-21.9,41.6-21.9h24c23.2,0,46.4-5.4,67.2-15.7l17.4-8.6c4.5-2.2,8.6-5.2,12.3-8.7
				l92.5-90c4.7-4.6,11.1-6.9,17.6-6.3c6.5,0.5,12.5,3.8,16.4,9.1c6,8,6,18.9,0,26.9l-119,161.5c-1.1,1.6-3.3,1.9-4.9,0.7
				c-1.6-1.1-1.9-3.3-0.7-4.9l119-161.5c4.1-5.6,4.1-13,0-18.6c-2.7-3.6-6.8-5.9-11.3-6.3c-4.5-0.4-8.9,1.2-12.2,4.4l-92.5,90
				c-4.1,4-8.9,7.4-14,9.9l-17.4,8.6c-21.7,10.7-46,16.4-70.3,16.4h-24c-14.3,0-27.7,7-35.8,18.9c-9.4,13.7-10.2,31.9-1.8,46.4
				l29.6,51.4c13,22.6,31.6,41.8,53.7,55.5l135.4,84.3c6.9,4.3,16,2.2,20.4-4.6c4-6.2,2.8-14.6-2.9-19.4L512.6,450
				c-6.3-5.4-11.4-11.8-15.2-19.2L472,380.6c-0.9-1.7-0.2-3.8,1.5-4.7c1.7-0.9,3.8-0.2,4.7,1.5l25.5,50.1
				c3.3,6.6,7.9,12.3,13.5,17.1l129.6,109.9c8.3,7.1,10.2,19.3,4.3,28.5C646.9,589.6,639.8,593.1,632.5,593.1z"/>
			<path class="st3" d="M298.8,789.7c-2.2,0-4.4-0.3-6.5-0.9c-7.5-2.1-13.5-7.5-16.3-14.8c-2.8-7.3-2-15.3,2.2-21.9L391.3,575
				c17.7-27.8,25.6-61.2,22.1-94l-8.2-76.7c-0.2-1.9,1.2-3.6,3.1-3.9c1.9-0.2,3.6,1.2,3.9,3.1l8.2,76.7c3.7,34.4-4.5,69.4-23.1,98.5
				L284.1,755.9c-3,4.7-3.6,10.4-1.6,15.6s6.2,9,11.6,10.5c6.4,1.8,13.2-0.2,17.6-5.2l166.8-187.4c1.3-1.4,3.5-1.6,4.9-0.3
				c1.4,1.3,1.6,3.5,0.3,4.9L317,781.5C312.2,786.8,305.7,789.7,298.8,789.7z"/>
			<path class="st3" d="M489,798.3c-7.1,0-13.9-3-18.7-8.2s-7.2-12.2-6.7-19.3l11-139.8c0.2-1.9,1.8-3.4,3.8-3.2
				c1.9,0.2,3.4,1.8,3.2,3.8l-11,139.8c-0.4,5.2,1.3,10.2,4.9,14c3.5,3.8,8.4,5.9,13.6,5.9c8.8,0,16.4-6.3,18.1-14.9l41.3-209.9
				c0.4-1.9,2.2-3.1,4.1-2.8c1.9,0.4,3.1,2.2,2.8,4.1L514,777.7C511.7,789.6,501.2,798.3,489,798.3z"/>
		</g>
		<g>
			<circle class="st4" cx="473.7" cy="213.6" r="71"/>
			<path class="st3" d="M473.7,288.2c-41.1,0-74.5-33.4-74.5-74.5s33.4-74.5,74.5-74.5s74.5,33.4,74.5,74.5S514.8,288.2,473.7,288.2
				z M473.7,146.1c-37.2,0-67.5,30.3-67.5,67.5s30.3,67.5,67.5,67.5c37.2,0,67.5-30.3,67.5-67.5S511,146.1,473.7,146.1z"/>
		</g>
	</g>
	<g>
		<path class="st5" d="M368.1,321.8c-0.8,0-1.7-0.3-2.4-0.9l-51.6-46.9c-1.4-1.3-1.5-3.5-0.2-4.9c1.3-1.4,3.5-1.5,4.9-0.2l51.6,46.9
			c1.4,1.3,1.5,3.5,0.2,4.9C370,321.4,369.1,321.8,368.1,321.8z"/>
		<path class="st5" d="M367.9,354.5c-0.3,0-0.6,0-0.9-0.1l-125.8-34.7c-1.9-0.5-3-2.4-2.4-4.3c0.5-1.9,2.4-3,4.3-2.4l125.8,34.7
			c1.9,0.5,3,2.4,2.4,4.3C370.8,353.5,369.4,354.5,367.9,354.5z"/>
		<path class="st5" d="M596.8,217.1c-1.1,0-2.1-0.5-2.8-1.4c-1.2-1.5-0.8-3.7,0.7-4.9l42-31.3c1.5-1.2,3.7-0.8,4.9,0.7
			c1.2,1.5,0.8,3.7-0.7,4.9l-42,31.3C598.3,216.9,597.6,217.1,596.8,217.1z"/>
		<path class="st5" d="M572.8,212.2c-0.5,0-1.1-0.1-1.6-0.4c-1.7-0.9-2.4-3-1.6-4.7l43.6-87.8c0.9-1.7,3-2.4,4.7-1.6
			c1.7,0.9,2.4,3,1.6,4.7l-43.6,87.8C575.3,211.5,574.1,212.2,572.8,212.2z"/>
	</g>
</g>
</svg>
